<svg xmlns="http://www.w3.org/2000/svg" fill="none" viewBox="0 0 230 56" height="56" width="230">
<g clip-path="url(#clip0_3_6)">
<path fill="#A63C5D" d="M4.9536 19.7898C7.31736 19.7898 9.23355 17.8564 9.23355 15.4714C9.23355 13.0863 7.31736 11.1529 4.9536 11.1529C2.58985 11.1529 0.673653 13.0863 0.673653 15.4714C0.673653 17.8564 2.58985 19.7898 4.9536 19.7898Z"></path>
<path fill="#A63C5D" d="M13.1333 11.6776C15.1946 11.6776 16.8656 9.99153 16.8656 7.91173C16.8656 5.83192 15.1946 4.1459 13.1333 4.1459C11.0721 4.1459 9.4011 5.83192 9.4011 7.91173C9.4011 9.99153 11.0721 11.6776 13.1333 11.6776Z"></path>
<path fill="#A63C5D" d="M21.684 6.26316C23.2532 6.26316 24.5254 4.97959 24.5254 3.39623C24.5254 1.81288 23.2532 0.529312 21.684 0.529312C20.1148 0.529312 18.8426 1.81288 18.8426 3.39623C18.8426 4.97959 20.1148 6.26316 21.684 6.26316Z"></path>
<path fill="#A63C5D" d="M28.6147 4.62858C29.8814 4.62858 30.9083 3.59244 30.9083 2.31429C30.9083 1.03614 29.8814 0 28.6147 0C27.3479 0 26.321 1.03614 26.321 2.31429C26.321 3.59244 27.3479 4.62858 28.6147 4.62858Z"></path>
<path fill="#A63C5D" d="M33.7797 4.42105C34.6872 4.42105 35.4228 3.67879 35.4228 2.76316C35.4228 1.84753 34.6872 1.10526 33.7797 1.10526C32.8723 1.10526 32.1366 1.84753 32.1366 2.76316C32.1366 3.67879 32.8723 4.42105 33.7797 4.42105Z"></path>
<path fill="#A63C5D" d="M37.2601 4.46885C37.7138 4.46885 38.0816 4.09772 38.0816 3.63991C38.0816 3.18209 37.7138 2.81096 37.2601 2.81096C36.8063 2.81096 36.4385 3.18209 36.4385 3.63991C36.4385 4.09772 36.8063 4.46885 37.2601 4.46885Z"></path>
<path fill="#A63C5D" d="M39.2417 5.35377C39.5442 5.35377 39.7894 5.10635 39.7894 4.80114C39.7894 4.49593 39.5442 4.2485 39.2417 4.2485C38.9393 4.2485 38.694 4.49593 38.694 4.80114C38.694 5.10635 38.9393 5.35377 39.2417 5.35377Z"></path>
<path fill="#007091" d="M12.6272 44.1103C14.991 44.1103 16.9072 42.1768 16.9072 39.7918C16.9072 37.4068 14.991 35.4734 12.6272 35.4734C10.2635 35.4734 8.34729 37.4068 8.34729 39.7918C8.34729 42.1768 10.2635 44.1103 12.6272 44.1103Z"></path>
<path fill="#007091" d="M12.7682 32.3663C14.8295 32.3663 16.5005 30.6802 16.5005 28.6004C16.5005 26.5206 14.8295 24.8346 12.7682 24.8346C10.7069 24.8346 9.03596 26.5206 9.03596 28.6004C9.03596 30.6802 10.7069 32.3663 12.7682 32.3663Z"></path>
<path fill="#007091" d="M15.3635 22.0878C16.9327 22.0878 18.2048 20.8042 18.2048 19.2209C18.2048 17.6375 16.9327 16.3539 15.3635 16.3539C13.7942 16.3539 12.5221 17.6375 12.5221 19.2209C12.5221 20.8042 13.7942 22.0878 15.3635 22.0878Z"></path>
<path fill="#007091" d="M19.328 15.6987C20.5947 15.6987 21.6216 14.6626 21.6216 13.3844C21.6216 12.1063 20.5947 11.0701 19.328 11.0701C18.0612 11.0701 17.0343 12.1063 17.0343 13.3844C17.0343 14.6626 18.0612 15.6987 19.328 15.6987Z"></path>
<path fill="#007091" d="M23.1896 11.5528C24.0971 11.5528 24.8327 10.8105 24.8327 9.8949C24.8327 8.97927 24.0971 8.23701 23.1896 8.23701C22.2821 8.23701 21.5465 8.97927 21.5465 9.8949C21.5465 10.8105 22.2821 11.5528 23.1896 11.5528Z"></path>
<path fill="#007091" d="M26.2055 8.76399C26.6592 8.76399 27.027 8.39286 27.027 7.93504C27.027 7.47723 26.6592 7.10609 26.2055 7.10609C25.7517 7.10609 25.3839 7.47723 25.3839 7.93504C25.3839 8.39286 25.7517 8.76399 26.2055 8.76399Z"></path>
<path fill="#007091" d="M28.2957 7.74034C28.5982 7.74034 28.8434 7.49292 28.8434 7.18771C28.8434 6.8825 28.5982 6.63508 28.2957 6.63508C27.9933 6.63508 27.748 6.8825 27.748 7.18771C27.748 7.49292 27.9933 7.74034 28.2957 7.74034Z"></path>
<path fill="#0E305D" d="M34.3505 56.0012C36.7143 56.0012 38.6305 54.0677 38.6305 51.6827C38.6305 49.2977 36.7143 47.3643 34.3505 47.3643C31.9868 47.3643 30.0706 49.2977 30.0706 51.6827C30.0706 54.0677 31.9868 56.0012 34.3505 56.0012Z"></path>
<path fill="#0E305D" d="M26.7497 47.2955C28.811 47.2955 30.4819 45.6095 30.4819 43.5296C30.4819 41.4498 28.811 39.7638 26.7497 39.7638C24.6884 39.7638 23.0174 41.4498 23.0174 43.5296C23.0174 45.6095 24.6884 47.2955 26.7497 47.2955Z"></path>
<path fill="#0E305D" d="M22.1624 37.8296C23.7316 37.8296 25.0037 36.546 25.0037 34.9627C25.0037 33.3793 23.7316 32.0958 22.1624 32.0958C20.5931 32.0958 19.321 33.3793 19.321 34.9627C19.321 36.546 20.5931 37.8296 22.1624 37.8296Z"></path>
<path fill="#0E305D" d="M20.9976 30.2991C22.2644 30.2991 23.2913 29.263 23.2913 27.9848C23.2913 26.7067 22.2644 25.6705 20.9976 25.6705C19.7309 25.6705 18.704 26.7067 18.704 27.9848C18.704 29.263 19.7309 30.2991 20.9976 30.2991Z"></path>
<path fill="#0E305D" d="M21.3743 24.4265C22.2818 24.4265 23.0174 23.6843 23.0174 22.7686C23.0174 21.853 22.2818 21.1108 21.3743 21.1108C20.4669 21.1108 19.7312 21.853 19.7312 22.7686C19.7312 23.6843 20.4669 24.4265 21.3743 24.4265Z"></path>
<path fill="#0E305D" d="M22.1959 20.0743C22.6496 20.0743 23.0174 19.7032 23.0174 19.2453C23.0174 18.7875 22.6496 18.4164 22.1959 18.4164C21.7422 18.4164 21.3743 18.7875 21.3743 19.2453C21.3743 19.7032 21.7422 20.0743 22.1959 20.0743Z"></path>
<path fill="#0E305D" d="M23.0902 17.556C23.3927 17.556 23.6379 17.3085 23.6379 17.0033C23.6379 16.6981 23.3927 16.4507 23.0902 16.4507C22.7878 16.4507 22.5425 16.6981 22.5425 17.0033C22.5425 17.3085 22.7878 17.556 23.0902 17.556Z"></path>
<path fill="#0E305D" d="M63.3985 36.764H59.4617L57.6869 21.6436L51.6853 34.2165H48.4915L42.4575 21.6762L40.6503 36.764H36.7135L39.4243 14.2635H42.8446L50.0722 29.743L57.2675 14.2635H60.6877L63.3985 36.764Z"></path>
<path fill="#0E305D" d="M76.8196 21.513H80.8522L71.4951 44.2094H67.5583L70.9462 35.6855L64.9446 21.5118H69.0419L72.9464 31.1782L76.8184 21.5118L76.8196 21.513Z"></path>
<path fill="#0E305D" d="M103.986 14.2635H107.923V36.764H104.341L95.4681 21.6109V36.764H91.5313V14.2635H95.2416L103.985 29.286V14.2635H103.986Z"></path>
<path fill="#0E305D" d="M127.443 36.764L125.507 31.2447H116.764L114.86 36.764H110.665L119.022 14.2635H123.281L131.605 36.764H127.443ZM117.957 27.7831H124.314L121.151 18.6391L117.957 27.7831Z"></path>
<path fill="#0E305D" d="M143.059 14.2635C149.416 14.2635 153.126 19.1626 153.126 25.5633C153.126 31.964 149.416 36.7652 143.059 36.7652H134.348V14.2635H143.059ZM143.059 33.2045C147.092 33.2045 149.158 29.743 149.158 25.5633C149.158 21.3836 147.093 17.8229 143.059 17.8229H138.284V33.2045H143.059Z"></path>
<path fill="#0E305D" d="M163.402 20.1967V22.005H160.43V25.0316H158.642V22.005H155.671V20.1967H158.642V17.1887H160.43V20.1967H163.402Z"></path>
<path fill="#0E305D" d="M188.5 14.2635V17.8229H182.144V36.764H178.207V17.8229H171.851V14.2635H188.499H188.5Z"></path>
<path fill="#0E305D" d="M203.182 30.4612H191.502C191.922 32.5843 193.535 33.7268 195.794 33.7268C197.407 33.7268 198.988 33.0087 199.859 31.767L202.376 33.6942C200.988 35.9152 198.311 37.1557 195.567 37.1557C191.083 37.1557 187.663 33.8901 187.663 29.1216C187.663 24.3531 191.245 21.1213 195.567 21.1213C199.89 21.1213 203.247 24.2237 203.247 28.991C203.247 29.4154 203.214 29.9051 203.182 30.46V30.4612ZM199.535 27.8158C199.31 25.7254 197.696 24.4848 195.599 24.4848C193.501 24.4848 191.953 25.4968 191.501 27.8158H199.535Z"></path>
<path fill="#0E305D" d="M205.665 32.0608H209.183C209.183 33.1054 210.086 34.0859 211.667 34.0859C213.151 34.0859 214.119 33.3351 214.119 32.3546C214.119 31.5058 213.474 31.1141 212.344 30.8529L210.344 30.3306C206.956 29.4166 206.085 27.5873 206.085 25.6612C206.085 23.277 208.407 21.1224 211.699 21.1224C214.378 21.1224 217.41 22.4935 217.379 25.8909H213.796C213.796 24.8463 212.861 24.1922 211.796 24.1922C210.635 24.1922 209.829 24.8777 209.829 25.8256C209.829 26.6091 210.57 27.0661 211.442 27.262L213.861 27.9149C217.249 28.7963 217.862 30.952 217.862 32.3558C217.862 35.4582 214.796 37.1569 211.732 37.1569C208.667 37.1569 205.73 35.3276 205.665 32.062V32.0608Z"></path>
<path fill="#0E305D" d="M229.574 21.513V24.5175H226.38V36.764H222.637V24.5175H219.926V21.513H222.637V15.8957H226.38V21.513H229.574Z"></path>
</g>
<defs>
<clipPath id="clip0_3_6">
<rect fill="white" height="56" width="230"></rect>
</clipPath>
</defs>
</svg>
